<?xml version="1.0" encoding="UTF-8" ?>
<!DOCTYPE svg PUBLIC "-//W3C//DTD SVG 1.1//EN" "http://www.w3.org/Graphics/SVG/1.1/DTD/svg11.dtd">
<svg width="622pt" height="174pt" viewBox="0 0 622 174" version="1.1" xmlns="http://www.w3.org/2000/svg">
<g id="#ffffffff">
<path fill="#ffffff" opacity="1.00" d=" M 509.29 71.25 C 509.82 71.79 509.82 71.79 509.29 71.25 Z" />
<path fill="#ffffff" opacity="1.00" d=" M 497.33 137.71 C 497.86 138.39 497.86 138.39 497.33 137.71 Z" />
<path fill="#ffffff" opacity="1.00" d=" M 496.14 140.40 L 497.07 140.58 C 498.58 142.53 494.61 142.08 496.14 140.40 Z" />
<path fill="#ffffff" opacity="1.00" d=" M 495.21 143.34 C 497.42 143.02 495.86 147.49 494.79 144.94 C 494.90 144.54 495.11 143.74 495.21 143.34 Z" />
</g>
<g id="#a48705ff">
<path fill="#a48705" opacity="1.00" d=" M 508.28 0.00 L 558.49 0.00 C 562.18 1.00 566.40 1.98 568.66 5.38 C 572.94 11.39 572.85 19.11 572.07 26.13 C 569.23 38.18 561.96 48.57 554.17 57.97 C 547.97 65.42 541.51 72.66 534.50 79.36 C 536.18 81.00 537.86 82.63 539.56 84.25 C 548.22 75.27 558.07 67.57 568.46 60.71 C 575.55 56.56 582.52 51.98 590.44 49.54 C 596.04 47.39 602.11 49.34 607.88 48.13 C 607.75 48.64 607.50 49.65 607.37 50.15 C 608.27 49.55 609.17 48.95 610.09 48.34 C 611.08 49.13 612.08 49.91 613.09 50.69 C 613.47 50.62 614.22 50.50 614.60 50.44 C 615.73 51.69 616.87 52.93 618.02 54.16 C 619.23 56.34 620.54 58.49 621.36 60.86 C 621.88 66.19 621.08 71.58 622.00 76.89 L 622.00 115.83 C 620.06 122.84 613.17 127.36 606.12 127.72 C 594.12 128.40 582.45 123.82 572.42 117.56 C 559.83 109.40 548.74 99.14 537.90 88.82 C 536.66 89.94 535.44 91.06 534.21 92.18 C 546.44 105.62 559.24 119.03 567.58 135.35 C 571.08 142.51 574.25 151.18 570.75 158.95 C 567.85 161.02 566.48 164.91 562.89 166.00 C 559.59 167.07 556.07 166.31 552.68 166.42 C 555.82 165.47 559.11 164.82 562.00 163.18 C 566.10 160.66 568.31 155.74 568.19 151.02 C 567.96 146.40 566.12 142.08 564.09 138.00 C 555.97 121.81 543.54 108.37 531.29 95.23 C 524.16 102.46 517.50 110.14 511.07 117.99 C 504.02 126.76 498.04 136.84 496.20 148.09 C 495.45 153.21 496.16 159.17 500.00 162.96 C 503.53 166.37 508.71 166.07 513.22 166.68 C 508.51 166.78 503.15 166.90 499.43 163.53 C 495.20 159.56 494.81 153.20 495.37 147.79 C 494.20 147.53 493.09 147.09 492.39 146.05 L 494.03 145.45 C 494.81 142.45 496.21 139.65 497.01 136.65 C 497.55 136.64 498.63 136.63 499.17 136.62 C 498.73 135.32 498.30 134.03 497.88 132.73 C 498.38 133.30 499.39 134.43 499.89 135.00 C 499.53 133.09 499.32 131.09 500.57 129.44 C 508.34 116.11 519.02 104.72 529.81 93.80 C 528.14 92.06 526.47 90.33 524.82 88.58 C 516.48 96.12 507.70 103.18 498.17 109.16 C 489.68 114.70 480.81 120.10 470.87 122.54 C 465.06 123.34 458.61 124.80 453.18 121.75 C 446.54 118.83 442.42 111.19 444.16 104.04 C 444.27 109.14 446.29 114.45 450.81 117.19 C 457.96 121.49 466.88 120.21 474.29 117.30 C 492.14 110.24 507.33 98.04 521.23 85.06 C 506.51 71.38 491.62 56.92 472.83 49.00 C 463.63 45.14 452.25 44.16 443.64 50.03 C 447.65 46.10 453.60 45.20 458.99 45.40 C 470.30 45.44 480.62 50.75 490.67 55.31 C 502.81 63.07 514.11 72.16 524.59 82.04 C 531.89 75.20 538.82 67.97 545.51 60.53 C 554.13 50.82 562.63 40.40 566.71 27.87 C 568.43 22.14 569.47 15.25 565.95 9.98 C 563.09 5.82 557.64 4.99 552.97 5.01 C 539.32 5.01 525.66 4.96 512.01 5.03 C 507.43 5.03 502.05 6.27 499.77 10.70 C 496.11 17.37 498.66 25.29 501.18 31.90 C 507.83 48.17 519.15 61.96 530.73 74.96 C 529.55 75.96 528.37 76.96 527.20 77.96 C 514.93 64.09 503.04 49.32 496.00 32.01 C 492.81 23.96 491.06 13.94 496.36 6.37 C 498.96 2.35 503.73 0.61 508.28 0.00 M 584.19 56.28 C 568.19 63.39 554.20 74.20 541.16 85.73 C 546.64 91.38 552.58 96.54 558.54 101.68 C 567.91 109.79 578.16 117.37 590.10 121.19 C 595.17 122.81 600.57 123.81 605.90 123.20 C 611.79 122.57 616.43 116.82 616.21 110.96 C 616.25 100.97 616.21 90.98 616.21 80.99 C 616.25 75.03 616.91 69.04 616.11 63.11 C 615.31 57.60 610.24 53.56 604.93 52.76 C 597.85 51.55 590.66 53.49 584.19 56.28 M 509.29 71.25 C 509.82 71.79 509.82 71.79 509.29 71.25 M 527.92 85.41 C 529.42 87.20 531.03 88.89 532.69 90.53 C 533.90 89.50 535.12 88.47 536.35 87.44 C 534.77 85.65 533.10 83.96 531.37 82.32 C 530.22 83.36 529.07 84.39 527.92 85.41 M 497.33 137.71 C 497.86 138.39 497.86 138.39 497.33 137.71 M 496.14 140.40 C 494.61 142.08 498.58 142.53 497.07 140.58 L 496.14 140.40 M 495.21 143.34 C 495.11 143.74 494.90 144.54 494.79 144.94 C 495.86 147.49 497.42 143.02 495.21 143.34 Z" />
</g>
<g id="#110a26ff">
<path fill="#110a26" opacity="1.00" d=" M 411.45 50.51 C 418.33 47.80 426.89 51.29 429.68 58.19 C 432.49 64.27 430.25 72.11 424.64 75.76 C 418.06 80.50 407.67 78.17 403.96 70.88 C 399.64 63.64 403.51 53.25 411.45 50.51 M 412.16 53.31 C 408.61 54.79 405.87 58.09 405.16 61.89 C 403.65 68.77 409.90 75.98 416.95 75.39 C 423.97 75.42 429.69 67.85 427.71 61.11 C 426.14 54.59 418.36 50.52 412.16 53.31 Z" />
<path fill="#110a26" opacity="1.00" d=" M 0.00 60.73 C 4.37 57.73 9.80 56.87 14.97 56.40 C 20.77 56.19 27.31 56.21 32.06 60.03 C 35.06 62.39 35.91 66.42 35.87 70.04 C 35.88 79.71 35.82 89.38 35.89 99.05 C 35.81 100.51 36.01 102.07 35.38 103.44 C 33.11 103.54 29.95 104.37 28.19 102.98 C 27.48 91.64 28.66 80.20 27.58 68.87 C 27.40 65.64 24.95 62.87 21.78 62.25 C 17.49 61.49 12.53 61.36 8.85 64.07 C 8.04 77.23 9.41 90.51 8.16 103.64 C 5.44 103.65 2.72 103.62 0.00 103.52 L 0.00 60.73 Z" />
<path fill="#110a26" opacity="1.00" d=" M 57.08 56.20 C 64.60 54.37 73.40 56.65 78.14 63.03 C 82.74 69.31 83.42 77.57 82.58 85.08 C 81.78 91.61 78.69 98.46 72.58 101.58 C 63.50 106.84 49.28 104.24 44.91 93.98 C 41.30 85.50 41.20 75.54 44.50 66.95 C 46.55 61.52 51.37 57.35 57.08 56.20 M 57.39 62.45 C 55.63 63.23 53.95 64.42 53.15 66.23 C 50.37 71.68 50.48 78.01 50.72 83.96 C 51.10 88.62 52.09 93.90 56.01 96.93 C 60.88 101.12 69.83 99.20 71.94 92.93 C 73.54 88.51 73.84 83.70 73.96 79.04 C 73.51 74.32 73.64 69.23 71.16 65.02 C 67.93 61.08 61.88 60.71 57.39 62.45 Z" />
<path fill="#110a26" opacity="1.00" d=" M 139.40 56.55 C 146.81 54.27 155.72 56.02 160.93 61.99 C 165.25 66.92 166.44 73.70 166.63 80.06 C 166.39 86.73 165.04 94.08 159.94 98.84 C 153.39 105.19 142.51 105.84 134.83 101.20 C 129.48 98.04 127.07 91.73 126.24 85.85 C 125.61 78.41 125.61 70.31 129.78 63.80 C 131.92 60.24 135.48 57.76 139.40 56.55 M 140.49 62.69 C 137.67 63.92 136.18 66.81 135.43 69.64 C 133.72 76.42 133.67 83.63 135.48 90.40 C 136.36 93.45 138.15 96.43 141.06 97.90 C 145.92 100.62 153.19 98.82 155.38 93.45 C 157.93 87.00 157.51 79.88 157.13 73.10 C 156.60 69.54 156.18 65.10 152.71 63.15 C 149.07 61.02 144.29 60.91 140.49 62.69 Z" />
<path fill="#110a26" opacity="1.00" d=" M 259.50 56.58 C 266.53 55.64 275.27 54.84 280.50 60.70 C 286.03 56.18 293.64 54.95 300.49 56.57 C 303.91 57.57 307.16 59.75 308.77 63.01 C 310.48 67.13 309.69 71.68 309.86 76.01 C 309.70 85.23 310.19 94.46 309.57 103.66 C 306.86 103.90 304.14 103.90 301.43 103.67 C 301.22 92.14 301.50 80.60 301.30 69.07 C 301.30 66.42 300.23 63.44 297.59 62.39 C 293.99 61.07 289.79 61.59 286.47 63.44 C 284.77 64.25 284.40 66.29 284.38 67.99 C 284.24 79.63 284.51 91.28 284.27 102.91 C 282.34 104.87 278.76 103.48 276.20 103.68 C 275.75 93.79 276.11 83.88 276.01 73.99 C 275.86 70.75 276.64 67.16 274.69 64.30 C 273.40 62.45 271.07 61.65 268.90 61.63 C 265.50 61.52 261.65 61.48 258.97 63.92 C 258.65 76.67 259.01 89.43 258.81 102.17 C 259.06 104.28 256.28 103.78 255.00 103.90 C 253.45 103.70 250.37 104.60 250.68 102.03 C 250.66 88.39 250.54 74.74 250.74 61.10 C 252.13 57.81 256.45 57.52 259.50 56.58 Z" />
<path fill="#110a26" opacity="1.00" d=" M 322.33 61.34 C 329.35 53.63 343.32 53.74 349.90 61.95 C 352.70 65.31 353.99 69.81 353.64 74.15 C 353.39 76.04 352.18 78.36 349.97 78.28 C 340.97 78.47 331.96 78.31 322.95 78.33 C 323.11 85.32 325.59 93.39 332.52 96.44 C 338.59 99.16 345.33 96.11 349.46 91.43 C 351.73 88.85 353.95 92.50 352.61 94.68 C 348.35 104.55 334.71 107.39 325.89 102.13 C 318.82 97.76 315.64 89.00 315.96 80.97 C 315.68 74.00 317.39 66.51 322.33 61.34 M 328.01 64.02 C 324.93 66.45 323.81 70.42 323.23 74.13 C 330.10 74.01 337.00 74.45 343.85 73.92 C 345.92 72.26 344.93 69.18 344.07 67.09 C 341.70 60.83 332.72 60.00 328.01 64.02 Z" />
<path fill="#110a26" opacity="1.00" d=" M 369.49 56.52 C 373.93 55.67 378.76 55.57 383.01 57.29 C 384.61 58.00 386.50 59.00 386.84 60.89 C 387.77 63.42 384.47 65.37 382.37 64.41 C 379.65 63.36 377.13 61.39 374.05 61.70 C 370.87 61.60 367.61 63.66 367.07 66.92 C 366.34 69.67 368.35 72.11 370.52 73.50 C 375.26 76.50 381.00 77.86 385.22 81.70 C 390.96 86.88 389.88 97.25 383.56 101.52 C 376.52 106.32 366.62 105.82 359.55 101.38 C 357.21 100.17 356.38 96.58 358.93 95.15 C 363.80 93.55 366.42 99.39 371.00 99.59 C 376.48 100.77 382.46 95.64 381.00 89.95 C 378.06 84.22 370.86 83.60 366.01 80.16 C 361.73 77.77 358.51 73.10 359.12 68.03 C 359.19 62.26 364.18 57.83 369.49 56.52 Z" />
<path fill="#110a26" opacity="1.00" d=" M 410.18 56.37 C 413.95 56.76 418.81 55.05 421.64 58.36 C 423.41 61.02 421.37 64.02 418.94 65.31 C 420.67 67.30 422.10 69.53 423.39 71.83 C 422.51 71.84 420.75 71.85 419.86 71.86 C 418.26 69.12 416.97 65.09 413.06 65.42 C 413.01 67.59 412.99 69.75 412.96 71.91 C 412.26 71.89 410.84 71.83 410.14 71.80 C 410.16 66.65 410.11 61.51 410.18 56.37 M 413.01 58.78 C 413.00 60.21 413.00 61.63 413.01 63.06 C 415.10 62.74 418.69 63.90 419.28 60.99 C 418.78 58.02 415.12 59.09 413.01 58.78 Z" />
<path fill="#110a26" opacity="1.00" d=" M 84.28 58.27 C 85.39 56.78 87.40 57.49 88.98 57.31 C 90.40 57.46 92.61 56.88 93.13 58.75 C 97.31 69.51 100.61 80.63 105.11 91.26 C 108.87 80.92 112.24 70.45 115.85 60.06 C 116.35 56.35 121.55 56.56 123.69 58.64 C 118.09 73.63 112.81 88.74 106.95 103.63 C 105.03 103.64 103.12 103.64 101.21 103.62 C 95.99 90.47 91.21 77.15 86.13 63.94 C 85.44 62.07 84.68 60.22 84.28 58.27 Z" />
<path fill="#110a26" opacity="1.00" d=" M 171.06 57.27 C 179.70 56.96 188.37 57.24 197.02 57.13 C 198.60 56.77 199.71 57.76 200.71 58.83 C 199.15 63.08 196.82 66.97 194.77 70.99 C 189.85 80.30 185.07 89.68 180.08 98.94 C 187.00 99.11 193.92 98.86 200.84 99.10 C 200.83 100.66 200.80 102.22 200.75 103.78 C 190.67 103.80 180.55 104.11 170.48 103.64 C 168.48 102.06 170.47 100.01 171.24 98.33 C 177.79 86.49 184.13 74.54 190.60 62.65 C 184.01 62.65 177.42 62.60 170.83 62.68 C 170.67 60.94 169.57 58.68 171.06 57.27 Z" />
<path fill="#110a26" opacity="1.00" d=" M 204.35 57.57 C 207.40 57.02 210.57 56.87 213.62 57.50 C 218.37 68.91 221.92 80.81 226.52 92.30 C 230.59 80.57 234.69 68.84 238.98 57.18 C 241.37 57.19 243.98 56.73 246.07 58.20 C 240.07 74.97 233.38 91.49 227.36 108.25 C 224.92 114.17 221.60 120.45 215.63 123.44 C 212.39 125.06 208.63 125.73 205.05 125.18 C 201.70 124.88 200.88 119.35 204.07 118.26 C 207.47 117.52 211.28 119.36 214.44 117.42 C 218.81 114.25 220.38 108.81 221.80 103.87 C 222.23 102.68 222.14 101.52 221.56 100.40 C 216.28 87.67 211.09 74.91 205.82 62.19 C 205.22 60.69 204.79 59.12 204.35 57.57 Z" />
<path fill="#110a26" opacity="1.00" d=" M 173.37 139.17 C 174.52 139.16 175.68 139.16 176.84 139.15 C 176.86 143.77 176.87 148.38 176.83 152.99 C 179.29 150.77 182.51 148.94 185.95 149.80 C 189.43 150.13 191.91 153.55 191.91 156.92 C 192.16 162.61 191.92 168.31 192.00 174.00 L 189.00 174.00 C 188.77 168.14 189.56 162.19 188.47 156.39 C 187.65 151.25 179.70 151.57 178.06 156.01 C 175.71 161.67 177.31 168.04 176.86 174.00 L 173.35 174.00 C 173.37 162.39 173.35 150.78 173.37 139.17 Z" />
<path fill="#110a26" opacity="1.00" d=" M 199.35 140.18 C 200.53 140.17 201.70 140.16 202.88 140.16 C 202.85 141.57 202.81 142.98 202.78 144.39 C 201.65 144.37 200.52 144.36 199.39 144.34 C 199.37 142.95 199.36 141.56 199.35 140.18 Z" />
<path fill="#110a26" opacity="1.00" d=" M 235.97 139.17 C 236.81 139.16 238.50 139.15 239.34 139.15 C 239.36 145.85 239.37 152.56 239.32 159.26 C 242.77 156.32 246.10 153.25 249.39 150.14 C 250.81 150.16 252.24 150.19 253.67 150.23 C 249.98 153.84 246.10 157.27 242.27 160.73 C 246.48 165.29 250.89 169.65 255.31 174.00 L 250.55 174.00 C 246.69 170.21 242.97 166.29 239.29 162.33 C 239.38 166.22 239.36 170.11 239.35 174.00 L 236.00 174.00 C 235.97 162.39 236.03 150.78 235.97 139.17 Z" />
<path fill="#110a26" opacity="1.00" d=" M 108.98 141.65 C 113.64 141.88 118.60 140.88 123.02 142.74 C 129.10 145.59 128.09 156.14 121.25 157.35 C 125.42 162.10 126.76 168.50 129.64 174.00 L 125.64 174.00 C 123.40 169.59 122.13 164.71 119.44 160.54 C 117.92 158.34 114.90 159.11 112.65 158.70 C 112.64 163.80 112.64 168.90 112.64 174.00 L 109.00 174.00 C 108.99 163.21 109.03 152.43 108.98 141.65 M 112.64 144.83 C 112.64 148.45 112.64 152.06 112.63 155.68 C 115.50 155.61 118.67 155.98 121.20 154.31 C 123.88 152.61 124.20 148.15 121.82 146.09 C 119.14 144.21 115.68 145.02 112.64 144.83 Z" />
<path fill="#110a26" opacity="1.00" d=" M 268.57 144.80 C 268.61 143.75 268.65 142.70 268.69 141.65 C 276.15 141.63 283.60 141.64 291.05 141.64 C 291.03 142.45 290.99 144.06 290.97 144.87 C 287.86 144.86 284.75 144.86 281.64 144.85 C 281.64 154.57 281.64 164.28 281.64 174.00 L 278.00 174.00 C 278.00 164.29 278.01 154.58 277.98 144.86 C 274.84 144.86 271.71 144.85 268.57 144.80 Z" />
<path fill="#110a26" opacity="1.00" d=" M 159.64 144.66 C 160.74 144.28 161.84 143.91 162.94 143.54 C 162.98 145.74 163.01 147.95 163.05 150.16 C 164.77 150.15 166.50 150.14 168.22 150.13 C 168.32 151.04 168.42 151.95 168.53 152.87 C 166.68 152.95 164.84 153.00 163.00 153.07 C 163.20 158.64 162.59 164.26 163.29 169.80 C 163.97 172.28 167.05 171.30 168.92 171.31 C 168.88 171.98 168.82 173.33 168.79 174.00 L 161.72 174.00 C 160.61 172.53 159.77 170.82 159.75 168.94 C 159.46 163.65 159.71 158.35 159.67 153.06 C 158.14 153.02 156.61 152.98 155.09 152.94 C 155.12 152.25 155.17 150.85 155.19 150.16 C 156.68 150.15 158.16 150.14 159.65 150.14 C 159.64 148.31 159.64 146.49 159.64 144.66 Z" />
<path fill="#110a26" opacity="1.00" d=" M 138.59 150.57 C 142.28 148.85 147.45 149.47 149.91 152.97 C 152.17 155.80 152.05 159.60 152.49 163.01 C 147.00 163.02 141.51 162.91 136.02 163.12 C 136.71 165.97 137.48 169.23 140.27 170.78 C 143.63 172.58 147.31 170.91 150.67 170.00 C 150.68 170.79 150.69 172.36 150.69 173.14 C 150.16 173.36 149.09 173.79 148.56 174.00 L 139.11 174.00 C 133.62 171.86 132.13 165.32 132.83 160.04 C 133.14 156.25 135.02 152.29 138.59 150.57 M 136.13 160.13 C 140.36 160.16 144.59 160.15 148.82 160.13 C 148.34 157.19 147.52 153.27 143.99 152.69 C 139.53 151.80 136.76 156.35 136.13 160.13 Z" />
<path fill="#110a26" opacity="1.00" d=" M 199.37 150.19 C 200.52 150.17 201.68 150.15 202.83 150.14 C 202.88 158.10 202.85 166.05 202.86 174.00 L 199.36 174.00 C 199.37 166.06 199.35 158.12 199.37 150.19 Z" />
<path fill="#110a26" opacity="1.00" d=" M 209.99 150.16 C 210.74 150.15 212.26 150.13 213.02 150.12 C 212.99 150.99 212.93 152.72 212.90 153.58 C 215.34 150.05 220.02 148.71 224.01 150.23 C 227.22 151.21 228.66 154.82 228.63 157.93 C 228.71 163.29 228.59 168.64 228.64 174.00 L 225.36 174.00 C 225.30 169.00 225.48 164.00 225.32 159.00 C 225.27 156.59 224.50 153.55 221.83 152.87 C 218.30 151.66 214.42 154.18 213.80 157.79 C 212.88 163.13 213.54 168.60 213.36 174.00 L 210.15 174.00 C 210.09 166.05 210.28 158.10 209.99 150.16 Z" />
<path fill="#110a26" opacity="1.00" d=" M 290.88 153.98 C 294.96 147.81 305.69 148.26 309.15 154.85 C 312.55 161.23 311.12 171.01 303.84 174.00 L 295.49 174.00 C 288.05 170.73 286.76 160.29 290.88 153.98 M 296.34 153.43 C 291.88 156.19 291.59 162.41 293.10 166.93 C 294.53 171.31 300.43 173.09 304.03 170.13 C 307.98 166.53 308.16 159.88 305.35 155.54 C 303.53 152.54 299.31 151.84 296.34 153.43 Z" />
<path fill="#110a26" opacity="1.00" d=" M 316.66 150.17 C 317.45 150.15 319.02 150.13 319.81 150.11 C 319.81 150.80 319.81 152.19 319.81 152.88 C 323.32 148.70 330.74 148.33 333.36 153.64 C 336.32 148.43 345.29 148.16 347.61 154.02 C 348.52 160.62 347.76 167.35 348.00 174.00 L 345.00 174.00 C 344.92 168.61 345.17 163.22 344.91 157.83 C 344.84 155.55 343.56 152.84 341.00 152.65 C 337.29 151.97 334.60 155.58 334.25 158.90 C 333.68 163.91 334.12 168.97 334.00 174.00 L 331.00 174.00 C 330.78 168.02 331.53 161.95 330.50 156.03 C 330.10 153.12 326.53 151.80 324.06 153.04 C 321.38 154.12 320.28 157.19 320.07 159.86 C 319.84 164.57 320.06 169.29 320.00 174.00 L 316.64 174.00 C 316.64 166.05 316.63 158.11 316.66 150.17 Z" />
<path fill="#110a26" opacity="1.00" d=" M 355.43 154.44 C 359.33 147.82 370.65 148.08 374.10 155.01 C 377.29 161.36 375.99 170.86 368.91 174.00 L 360.28 174.00 C 353.04 170.72 351.75 160.81 355.43 154.44 M 361.38 153.39 C 356.31 156.43 355.79 164.26 359.10 168.80 C 361.38 172.16 366.76 172.62 369.48 169.55 C 373.54 165.02 373.09 156.57 367.69 153.26 C 365.73 152.32 363.30 152.38 361.38 153.39 Z" />
<path fill="#110a26" opacity="1.00" d=" M 381.13 150.08 C 381.95 150.11 383.58 150.16 384.39 150.18 C 384.33 151.38 384.27 152.57 384.21 153.77 C 385.91 150.83 388.94 149.08 392.39 149.78 C 392.37 150.63 392.34 152.31 392.32 153.16 C 389.27 152.68 385.99 153.96 385.22 157.20 C 384.03 162.71 384.88 168.41 384.64 174.00 L 381.14 174.00 C 381.14 166.03 381.16 158.05 381.13 150.08 Z" />
<path fill="#110a26" opacity="1.00" d=" M 397.04 153.75 C 397.21 152.28 396.54 150.95 396.00 149.64 C 397.01 149.81 399.02 150.15 400.03 150.32 C 400.00 151.17 399.94 152.87 399.91 153.72 C 401.69 150.89 404.60 149.12 408.02 149.77 C 408.01 150.70 408.00 152.57 407.99 153.50 C 407.24 153.34 405.76 153.02 405.02 152.86 C 403.11 154.02 401.11 155.43 400.78 157.83 C 399.87 163.16 400.55 168.62 400.36 174.00 L 397.00 174.00 C 396.99 167.25 397.00 160.50 397.04 153.75 Z" />
<path fill="#110a26" opacity="1.00" d=" M 412.17 154.12 C 416.23 147.70 427.60 148.24 430.77 155.27 C 433.60 161.62 432.48 171.01 425.36 174.00 L 416.65 174.00 C 409.44 170.55 408.29 160.43 412.17 154.12 M 418.12 153.28 C 413.06 156.02 412.60 163.26 415.01 167.95 C 416.84 171.59 422.03 172.82 425.24 170.28 C 429.16 167.07 429.42 160.98 427.44 156.63 C 425.92 153.19 421.48 151.56 418.12 153.28 Z" />
<path fill="#110a26" opacity="1.00" d=" M 434.26 150.15 C 435.48 150.14 436.71 150.13 437.95 150.12 C 439.96 156.30 441.62 162.58 443.68 168.74 C 443.84 168.73 444.16 168.71 444.32 168.70 C 446.49 162.56 448.24 156.28 450.37 150.12 C 451.62 150.13 452.87 150.14 454.12 150.15 C 456.20 156.75 458.17 163.37 460.22 169.96 C 462.22 163.35 464.42 156.79 466.49 150.20 C 467.63 150.18 468.77 150.17 469.92 150.16 C 467.19 158.08 464.86 166.13 461.98 174.00 L 458.28 174.00 C 456.11 167.61 454.30 161.11 452.07 154.74 C 449.69 161.07 447.89 167.58 445.81 174.00 L 442.01 174.00 C 439.32 166.09 436.88 158.09 434.26 150.15 Z" />
</g>
</svg>
